<svg viewBox="454.132 234.45 33.62 31.1" width="33.62" height="31.1"
    xmlns="http://www.w3.org/2000/svg">
    <defs></defs>
    <path fill="#E17726" stroke="#E17726" stroke-linecap="round" stroke-linejoin="round"
        stroke-width=".25" d="M 486.092 234.45 L 472.952 244.17 L 475.402 238.44 L 486.092 234.45 Z"
        transform="matrix(1, 0, 0, 1, 0, 2.842170943040401e-14)"></path>
    <path fill="#E27625" stroke="#E27625" stroke-linecap="round" stroke-linejoin="round"
        stroke-width=".25"
        d="M 455.792 234.45 L 468.812 244.25 L 466.482 238.45 L 455.792 234.45 Z M 481.362 256.98 L 477.862 262.32 L 485.352 264.38 L 487.492 257.1 L 481.362 256.98 L 481.362 256.98 Z M 454.402 257.1 L 456.532 264.38 L 464.002 262.32 L 460.522 256.98 L 454.402 257.1 L 454.402 257.1 Z"
        transform="matrix(1, 0, 0, 1, 0, 2.842170943040401e-14)"></path>
    <path fill="#E27625" stroke="#E27625" stroke-linecap="round" stroke-linejoin="round"
        stroke-width=".25"
        d="M 463.602 247.96 L 461.522 251.1 L 468.922 251.44 L 468.682 243.47 L 463.602 247.97 L 463.602 247.96 Z M 478.282 247.97 L 473.122 243.37 L 472.952 251.44 L 480.352 251.1 L 478.282 247.97 L 478.282 247.97 Z M 464.002 262.32 L 468.492 260.16 L 464.632 257.16 L 464.002 262.32 L 464.002 262.32 Z M 473.402 260.15 L 477.862 262.32 L 477.262 257.15 L 473.402 260.15 Z"
        transform="matrix(1, 0, 0, 1, 0, 2.842170943040401e-14)"></path>
    <path fill="#D5BFB2" stroke="#D5BFB2" stroke-linecap="round" stroke-linejoin="round"
        stroke-width=".25"
        d="M 477.862 262.32 L 473.402 260.16 L 473.762 263.06 L 473.722 264.29 L 477.862 262.32 Z M 464.002 262.32 L 468.162 264.29 L 468.132 263.06 L 468.492 260.16 L 464.002 262.32 Z"
        transform="matrix(1, 0, 0, 1, 0, 2.842170943040401e-14)"></path>
    <path fill="#233447" stroke="#233447" stroke-linecap="round" stroke-linejoin="round"
        stroke-width=".25"
        d="M 468.232 255.23 L 464.532 254.15 L 467.152 252.95 L 468.242 255.23 L 468.232 255.23 Z M 473.642 255.23 L 474.742 252.94 L 477.372 254.14 L 473.642 255.24 L 473.642 255.23 Z"
        transform="matrix(1, 0, 0, 1, 0, 2.842170943040401e-14)"></path>
    <path fill="#CC6228" stroke="#CC6228" stroke-linecap="round" stroke-linejoin="round"
        stroke-width=".25"
        d="M 464.002 262.32 L 464.652 256.98 L 460.522 257.1 L 464.002 262.32 Z M 477.232 256.98 L 477.862 262.32 L 481.362 257.1 L 477.232 256.98 Z M 480.362 251.1 L 472.962 251.44 L 473.642 255.24 L 474.742 252.94 L 477.372 254.14 L 480.362 251.1 L 480.362 251.1 Z M 464.532 254.15 L 467.152 252.95 L 468.242 255.23 L 468.932 251.43 L 461.532 251.1 L 464.532 254.15 L 464.532 254.15 Z"
        transform="matrix(1, 0, 0, 1, 0, 2.842170943040401e-14)"></path>
    <path fill="#E27525" stroke="#E27525" stroke-linecap="round" stroke-linejoin="round"
        stroke-width=".25"
        d="M 461.532 251.1 L 464.632 257.15 L 464.532 254.15 L 461.532 251.1 Z M 477.372 254.15 L 477.252 257.15 L 480.352 251.1 L 477.372 254.15 Z M 468.932 251.44 L 468.232 255.24 L 469.112 259.72 L 469.312 253.81 L 468.932 251.44 Z M 472.952 251.44 L 472.592 253.8 L 472.772 259.72 L 473.642 255.23 L 472.952 251.43 L 472.952 251.44 Z"
        transform="matrix(1, 0, 0, 1, 0, 2.842170943040401e-14)"></path>
    <path fill="#F5841F" stroke="#F5841F" stroke-linecap="round" stroke-linejoin="round"
        stroke-width=".25"
        d="M 473.642 255.23 L 472.772 259.72 L 473.402 260.16 L 477.252 257.16 L 477.372 254.15 L 473.642 255.23 Z M 464.532 254.15 L 464.632 257.15 L 468.492 260.15 L 469.112 259.72 L 468.242 255.23 L 464.522 254.15 L 464.532 254.15 Z"
        transform="matrix(1, 0, 0, 1, 0, 2.842170943040401e-14)"></path>
    <path fill="#C0AC9D" stroke="#C0AC9D" stroke-linecap="round" stroke-linejoin="round"
        stroke-width=".25"
        d="M 473.732 264.29 L 473.762 263.06 L 473.422 262.78 L 468.462 262.78 L 468.132 263.06 L 468.162 264.29 L 464.002 262.32 L 465.462 263.52 L 468.412 265.55 L 473.462 265.55 L 476.422 263.51 L 477.862 262.32 L 473.722 264.29 L 473.732 264.29 Z"
        transform="matrix(1, 0, 0, 1, 0, 2.842170943040401e-14)"></path>
    <path fill="#161616" stroke="#161616" stroke-linecap="round" stroke-linejoin="round"
        stroke-width=".25"
        d="M 473.402 260.15 L 472.772 259.72 L 469.112 259.72 L 468.492 260.16 L 468.132 263.06 L 468.462 262.78 L 473.422 262.78 L 473.762 263.06 L 473.402 260.16 L 473.402 260.15 Z"
        transform="matrix(1, 0, 0, 1, 0, 2.842170943040401e-14)"></path>
    <path fill="#763E1A" stroke="#763E1A" stroke-linecap="round" stroke-linejoin="round"
        stroke-width=".25"
        d="M 486.652 244.8 L 487.752 239.45 L 486.092 234.45 L 473.392 243.85 L 478.282 247.96 L 485.182 249.97 L 486.702 248.2 L 486.042 247.72 L 487.092 246.76 L 486.292 246.14 L 487.342 245.34 L 486.642 244.8 L 486.652 244.8 Z M 454.132 239.44 L 455.252 244.8 L 454.532 245.33 L 455.602 246.13 L 454.802 246.76 L 455.842 247.72 L 455.182 248.2 L 456.702 249.97 L 463.602 247.97 L 468.492 243.84 L 455.792 234.45 L 454.132 239.44 Z"
        transform="matrix(1, 0, 0, 1, 0, 2.842170943040401e-14)"></path>
    <path fill="#F5841F" stroke="#F5841F" stroke-linecap="round" stroke-linejoin="round"
        stroke-width=".25"
        d="M 485.182 249.97 L 478.282 247.97 L 480.362 251.1 L 477.262 257.15 L 481.362 257.1 L 487.492 257.1 L 485.182 249.97 Z M 463.602 247.96 L 456.702 249.97 L 454.402 257.1 L 460.532 257.1 L 464.632 257.15 L 461.532 251.1 L 463.612 247.96 L 463.602 247.96 Z M 472.952 251.44 L 473.402 243.84 L 475.402 238.44 L 466.482 238.44 L 468.482 243.84 L 468.932 251.44 L 469.102 253.82 L 469.102 259.72 L 472.772 259.72 L 472.792 253.82 L 472.952 251.44 Z"
        transform="matrix(1, 0, 0, 1, 0, 2.842170943040401e-14)"></path>
</svg>