<svg viewBox="0 0 181 32" xmlns="http://www.w3.org/2000/svg">
  <defs></defs>
  <path d="M 88.233 13.877 C 88.233 16.923 86.186 19.487 83.397 20.269 L 89.088 31.689 L 85.668 31.689 L 80.283 20.524 L 74.534 20.524 L 74.534 31.689 L 71.551 31.689 L 71.551 6.396 L 78.458 6.477 L 78.446 6.485 L 81.611 6.485 C 85.268 6.485 88.233 9.856 88.233 13.523 Z M 81.995 9.254 L 74.534 9.254 L 74.534 17.746 L 80.802 17.746 C 83.34 17.746 85.396 16.124 85.396 13.58 L 85.396 13.103 C 85.396 11.22 83.874 9.254 81.995 9.254 Z M 92.354 9.254 L 92.354 6.477 L 112.438 6.477 L 112.438 9.254 L 103.888 9.254 L 103.888 31.689 L 100.904 31.689 L 100.904 9.254 Z M 119.736 20.472 L 119.736 28.912 L 133.437 28.912 L 133.437 31.689 L 116.752 31.689 L 116.752 6.477 L 133.036 6.477 L 133.036 9.254 L 119.736 9.254 L 119.736 17.694 L 131.467 17.694 L 131.467 20.472 Z M 168.51 10.323 L 167.961 10.323 L 162.878 22.609 L 170.864 22.609 L 172.013 25.386 L 161.729 25.386 L 159.122 31.686 L 159.599 31.69 L 155.747 31.69 L 166.682 6.477 L 169.966 6.477 L 180.804 31.69 L 177.35 31.69 Z M 141.174 6.477 L 141.174 28.912 L 154.321 28.912 L 153.171 31.689 L 138.19 31.689 L 138.19 6.477 Z M 54.618 6.477 L 57.902 6.477 L 68.74 31.689 L 65.286 31.689 L 56.447 10.323 L 55.897 10.323 L 50.814 22.609 L 58.8 22.609 L 59.949 25.386 L 49.665 25.386 L 47.058 31.686 L 47.536 31.689 L 43.683 31.689 Z" fill="#000"></path>
  <path d="M 11.015 31.689 L 18.274 19.083 L 25.534 31.689 Z M 0.126 31.689 L 18.274 0.174 L 36.423 31.689 L 30.731 31.689 L 18.274 9.59 L 5.817 31.689 Z" fill="rgb(3, 130, 255)"></path>
</svg>