<svg viewBox="112.807 193.978 141.944 44" width="141.944" height="44"
    xmlns="http://www.w3.org/2000/svg">
    <defs></defs>
    <path
        d="M 243.882 226.592 C 241.315 226.592 239.155 226.204 237.403 225.428 C 235.652 224.632 234.328 223.447 233.432 221.875 C 232.557 220.302 232.119 218.332 232.119 215.963 C 232.119 212.52 233.124 209.892 235.134 208.081 C 237.165 206.269 240.081 205.364 243.882 205.364 C 245.992 205.364 247.863 205.692 249.496 206.349 C 251.148 206.986 252.432 207.921 253.347 209.156 C 254.283 210.39 254.751 211.893 254.751 213.664 L 249.914 213.664 C 249.914 212.729 249.655 211.942 249.137 211.305 C 248.64 210.648 247.933 210.151 247.018 209.812 C 246.102 209.454 245.037 209.275 243.823 209.275 C 242.409 209.275 241.205 209.524 240.21 210.021 C 239.215 210.519 238.458 211.236 237.941 212.171 C 237.423 213.107 237.165 214.231 237.165 215.545 L 237.165 216.381 C 237.165 217.695 237.423 218.829 237.941 219.785 C 238.458 220.72 239.205 221.437 240.18 221.935 C 241.175 222.432 242.39 222.681 243.823 222.681 C 245.117 222.681 246.221 222.522 247.137 222.203 C 248.072 221.865 248.789 221.377 249.287 220.74 C 249.804 220.083 250.063 219.287 250.063 218.352 L 254.751 218.352 C 254.751 220.103 254.293 221.596 253.377 222.83 C 252.481 224.045 251.217 224.98 249.585 225.637 C 247.953 226.274 246.052 226.592 243.882 226.592 Z"
        fill="black" transform="matrix(1, 0, 0, 1, -7.105427357601002e-15, -7.105427357601002e-15)"></path>
    <path
        d="M 184.535 226.234 L 184.535 205.722 L 199.195 205.722 C 200.688 205.722 201.912 206.01 202.868 206.588 C 203.843 207.165 204.569 207.941 205.047 208.917 C 205.525 209.892 205.764 210.987 205.764 212.201 C 205.764 213.475 205.455 214.639 204.838 215.694 C 204.221 216.729 203.305 217.545 202.091 218.143 L 206.331 226.234 L 200.837 226.234 L 197.224 218.979 L 189.461 218.979 L 189.461 226.234 L 184.535 226.234 Z M 189.461 215.127 L 198.001 215.127 C 198.857 215.127 199.523 214.868 200.001 214.351 C 200.499 213.833 200.748 213.146 200.748 212.291 C 200.748 211.733 200.638 211.255 200.419 210.857 C 200.22 210.459 199.912 210.161 199.494 209.962 C 199.076 209.743 198.578 209.633 198.001 209.633 L 189.461 209.633 L 189.461 215.127 Z"
        fill="black" transform="matrix(1, 0, 0, 1, -7.105427357601002e-15, -7.105427357601002e-15)"></path>
    <path
        d="M 208.61 226.234 L 208.61 205.722 L 223.271 205.722 C 224.764 205.722 225.988 206.01 226.943 206.588 C 227.919 207.165 228.645 207.941 229.123 208.917 C 229.601 209.892 229.839 210.987 229.839 212.201 C 229.839 213.475 229.531 214.639 228.914 215.694 C 228.297 216.729 227.381 217.545 226.167 218.143 C 226.167 218.143 224.341 218.979 221.3 218.979 C 218.26 218.979 213.537 218.979 213.537 218.979 L 213.537 226.234 L 208.61 226.234 Z M 213.537 215.127 L 222.077 215.127 C 222.932 215.127 223.599 214.868 224.077 214.351 C 224.575 213.833 224.823 213.146 224.823 212.291 C 224.823 211.733 224.714 211.255 224.495 210.857 C 224.296 210.459 223.987 210.161 223.569 209.962 C 223.151 209.743 222.654 209.633 222.077 209.633 L 213.537 209.633 L 213.537 215.127 Z"
        fill="black" transform="matrix(1, 0, 0, 1, -7.105427357601002e-15, -7.105427357601002e-15)"></path>
    <path
        d="M 170.357 226.575 C 168.764 226.575 167.371 226.277 166.176 225.68 C 164.982 225.082 164.047 224.177 163.37 222.962 C 162.693 221.748 162.355 220.216 162.355 218.364 C 162.355 216.473 162.683 214.931 163.34 213.737 C 164.017 212.522 164.942 211.617 166.117 211.019 C 167.291 210.422 168.635 210.124 170.148 210.124 C 170.924 210.124 171.67 210.213 172.387 210.392 C 173.123 210.552 173.79 210.801 174.387 211.139 C 175.004 211.477 175.532 211.895 175.97 212.393 L 176.179 212.393 L 176.179 205.735 L 180.807 205.735 L 180.807 226.238 L 176.686 226.238 L 176.686 223.769 L 176.447 223.769 C 175.711 224.804 174.815 225.53 173.76 225.948 C 172.725 226.366 171.591 226.575 170.357 226.575 Z M 171.64 222.873 C 172.616 222.873 173.442 222.704 174.119 222.365 C 174.795 222.007 175.313 221.499 175.671 220.843 C 176.029 220.186 176.209 219.399 176.209 218.484 L 176.209 218.245 C 176.209 217.548 176.109 216.931 175.91 216.394 C 175.711 215.836 175.412 215.369 175.014 214.991 C 174.616 214.612 174.129 214.324 173.551 214.125 C 172.974 213.926 172.317 213.826 171.581 213.826 C 170.625 213.826 169.809 213.995 169.132 214.334 C 168.475 214.672 167.968 215.16 167.61 215.797 C 167.271 216.434 167.102 217.2 167.102 218.096 L 167.102 218.603 C 167.102 219.499 167.271 220.265 167.61 220.902 C 167.968 221.539 168.485 222.027 169.162 222.365 C 169.839 222.704 170.665 222.873 171.64 222.873 Z"
        fill="black" transform="matrix(1, 0, 0, 1, -7.105427357601002e-15, -7.105427357601002e-15)"></path>
    <path
        d="M 112.807 226.982 L 119.156 223.314 L 125.504 226.982 L 119.156 230.65 L 112.807 226.982 Z"
        fill="#49FF87"
        transform="matrix(1, 0, 0, 1, -7.105427357601002e-15, -7.105427357601002e-15)"></path>
    <path
        d="M 119.156 201.342 L 125.504 204.975 L 125.504 226.983 L 119.156 223.315 L 119.156 201.342 Z"
        fill="#33B05D"
        transform="matrix(1, 0, 0, 1, -7.105427357601002e-15, -7.105427357601002e-15)"></path>
    <path
        d="M 119.156 201.342 L 112.807 204.975 L 112.807 226.983 L 119.156 223.315 L 119.156 201.342 Z"
        fill="#41E278"
        transform="matrix(1, 0, 0, 1, -7.105427357601002e-15, -7.105427357601002e-15)"></path>
    <path
        d="M 131.852 193.978 L 131.854 201.31 L 125.504 204.974 L 125.501 197.642 L 131.852 193.978 Z"
        fill="#49FF87"
        transform="matrix(1, 0, 0, 1, -7.105427357601002e-15, -7.105427357601002e-15)"></path>
    <path
        d="M 150.884 212.296 L 150.912 204.982 L 131.853 193.978 L 131.855 201.31 L 150.884 212.296 Z"
        fill="#41E278"
        transform="matrix(1, 0, 0, 1, -7.105427357601002e-15, -7.105427357601002e-15)"></path>
    <path
        d="M 150.882 212.296 L 144.562 215.978 L 125.503 204.974 L 125.504 204.973 L 131.854 201.31 L 150.882 212.296 Z"
        fill="#33B05D"
        transform="matrix(1, 0, 0, 1, -7.105427357601002e-15, -7.105427357601002e-15)"></path>
    <path
        d="M 144.564 215.979 L 144.561 223.31 L 150.912 226.974 L 150.914 219.643 L 144.564 215.979 Z"
        fill="#49FF87"
        transform="matrix(1, 0, 0, 1, -7.105427357601002e-15, -7.105427357601002e-15)"></path>
    <path
        d="M 125.532 234.297 L 131.852 237.978 L 150.912 226.974 L 144.561 223.31 L 125.532 234.297 Z"
        fill="#33B05D"
        transform="matrix(1, 0, 0, 1, -7.105427357601002e-15, -7.105427357601002e-15)"></path>
    <path
        d="M 125.533 234.297 L 125.505 226.983 L 144.563 215.979 L 144.561 223.31 L 125.533 234.297 Z"
        fill="#41E278"
        transform="matrix(1, 0, 0, 1, -7.105427357601002e-15, -7.105427357601002e-15)"></path>
</svg>