<?xml version="1.0" encoding="utf-8"?>
<svg viewBox="-369.5691 21.655 1817.51 456.69" width="1817.51" height="456.69" xmlns="http://www.w3.org/2000/svg">
  <circle class="cls-3" cx="-75.209" cy="118.675" r="48.51" style="fill: rgb(89, 139, 255);" transform="matrix(0.9999999999999999, 0, 0, 0.9999999999999999, 0, 5.684341886080802e-14)"/>
  <circle class="cls-3" cx="-75.209" cy="342.805" r="48.51" style="fill: rgb(89, 139, 255);" transform="matrix(0.9999999999999999, 0, 0, 0.9999999999999999, 0, 5.684341886080802e-14)"/>
  <g transform="matrix(0.9999999999999999, 0, 0, 0.9999999999999999, -369.5691278214622, 21.655004824027515)">
    <g>
      <path class="cls-1" d="M97.02,114.44C43.44,114.44,0,157.88,0,211.46s43.44,97.02,97.02,97.02,97.02-43.44,97.02-97.02-43.44-97.02-97.02-97.02Zm0,145.53c-26.79,0-48.51-21.72-48.51-48.51s21.72-48.51,48.51-48.51,48.51,21.72,48.51,48.51-21.72,48.51-48.51,48.51Z" style="fill: black;"/>
      <g>
        <path class="cls-1" d="M294.28,0c-53.58,0-97.02,43.44-97.02,97.02s43.44,97.02,97.02,97.02,97.02-43.44,97.02-97.02S347.86,0,294.28,0Zm0,145.53c-26.79,0-48.51-21.72-48.51-48.51s21.72-48.51,48.51-48.51,48.51,21.72,48.51,48.51-21.72,48.51-48.51,48.51Z" style="fill: black"/>
        <path class="cls-1" d="M389.39,321.15c0-52.53-42.58-95.11-95.11-95.11s-95.11,42.58-95.11,95.11c0,46.84,33.86,85.77,78.44,93.65l-34.99,41.89h61.32l54.18-65.04c19.21-17.4,31.28-42.55,31.28-70.51Zm-95.11,47.56c-26.26,0-47.56-21.29-47.56-47.56s21.29-47.56,47.56-47.56,47.56,21.29,47.56,47.56c0,10.43-3.36,20.06-9.05,27.9l-.15-.13-5.53,6.62c-8.54,8.15-20.09,13.16-32.82,13.16Z" style="fill: black;"/>
      </g>
    </g>
    <g>
      <path class="cls-1" d="M1501.87,359.14c-13.4,0-24.25-10.86-24.25-24.25s10.86-24.25,24.25-24.25,24.25,10.86,24.25,24.25-10.86,24.25-24.25,24.25Z" style="fill: rgb(5, 3, 3);"/>
      <polygon class="cls-1" points="656.8 146.26 656.8 97.75 509.13 97.75 509.13 97.56 460.62 97.56 460.62 97.75 460.62 146.26 460.62 212.53 460.62 261.04 460.62 359.14 509.13 359.14 509.13 261.04 624.11 261.04 624.11 212.53 509.13 212.53 509.13 146.26 656.8 146.26" style="fill: rgb(5, 3, 3);"/>
      <polygon class="cls-1" points="839.97 310.63 733.21 310.63 733.21 97.56 684.7 97.56 684.7 310.63 684.7 359.14 684.7 359.14 733.21 359.14 733.21 359.14 839.97 359.14 839.97 310.63" style="fill: rgb(5, 3, 3);"/>
      <g>
        <rect class="cls-1" x="1550.49" y="160.12" width="48.51" height="199.02" style="fill: rgb(5, 3, 3);"/>
        <polygon class="cls-1" points="1550.49 97.56 1550.49 146.07 1599 146.07 1599 126.53 1599 97.56 1550.49 97.56" style="fill: rgb(5, 3, 3);"/>
      </g>
      <polygon class="cls-1" points="1408.01 359.14 1469.91 359.02 1376.84 243.47 1460.03 161.09 1390 161.09 1337.87 213.22 1337.87 97.75 1289.36 97.75 1289.36 261.73 1289.36 293.69 1289.36 359.14 1337.87 359.14 1337.87 282.07 1342.35 277.63 1408.01 359.14" style="fill: rgb(5, 3, 3);"/>
      <path class="cls-1" d="M949.92,162.95c-54.18,0-98.09,43.92-98.09,98.09s43.92,98.09,98.09,98.09,98.09-43.92,98.09-98.09-43.92-98.09-98.09-98.09Zm0,147.14c-27.09,0-49.05-21.96-49.05-49.05s21.96-49.05,49.05-49.05,49.05,21.96,49.05,49.05-21.96,49.05-49.05,49.05Z" style="fill: rgb(5, 3, 3);"/>
      <path class="cls-1" d="M1212.68,280.66c-7.57,17.32-24.83,29.43-44.94,29.43-27.09,0-49.05-21.96-49.05-49.05s21.96-49.05,49.05-49.05c20.11,0,37.37,12.11,44.94,29.43h51.19c-9.09-44.77-48.67-78.47-96.13-78.47-54.18,0-98.09,43.92-98.09,98.09s43.92,98.09,98.09,98.09c47.46,0,87.04-33.7,96.13-78.47h-51.19Z" style="fill: rgb(5, 3, 3);"/>
      <path class="cls-1" d="M1720.49,164.03c-53.58,0-97.02,43.44-97.02,97.02s43.44,97.02,97.02,97.02,97.02-43.44,97.02-97.02-43.44-97.02-97.02-97.02Zm0,145.53c-26.79,0-48.51-21.72-48.51-48.51s21.72-48.51,48.51-48.51,48.51,21.72,48.51,48.51-21.72,48.51-48.51,48.51Z" style="fill: rgb(5, 3, 3);"/>
    </g>
  </g>
</svg>