<svg viewBox="-820.5429 -193.9501 456.69 456.69" width="456.69" height="456.69"
    xmlns="http://www.w3.org/2000/svg">
    <defs></defs>
    <g transform="matrix(1, 0, 0, 1, -820.542919941886, -193.95012190863665)">
        <path class="cls-1"
            d="M97.02,114.44C43.44,114.44,0,157.88,0,211.46s43.44,97.02,97.02,97.02,97.02-43.44,97.02-97.02-43.44-97.02-97.02-97.02Zm0,145.53c-26.79,0-48.51-21.72-48.51-48.51s21.72-48.51,48.51-48.51,48.51,21.72,48.51,48.51-21.72,48.51-48.51,48.51Z"
            style="fill: black;"></path>
        <g>
            <path class="cls-1"
                d="M294.28,0c-53.58,0-97.02,43.44-97.02,97.02s43.44,97.02,97.02,97.02,97.02-43.44,97.02-97.02S347.86,0,294.28,0Zm0,145.53c-26.79,0-48.51-21.72-48.51-48.51s21.72-48.51,48.51-48.51,48.51,21.72,48.51,48.51-21.72,48.51-48.51,48.51Z"
                style="fill: black"></path>
            <path class="cls-1"
                d="M389.39,321.15c0-52.53-42.58-95.11-95.11-95.11s-95.11,42.58-95.11,95.11c0,46.84,33.86,85.77,78.44,93.65l-34.99,41.89h61.32l54.18-65.04c19.21-17.4,31.28-42.55,31.28-70.51Zm-95.11,47.56c-26.26,0-47.56-21.29-47.56-47.56s21.29-47.56,47.56-47.56,47.56,21.29,47.56,47.56c0,10.43-3.36,20.06-9.05,27.9l-.15-.13-5.53,6.62c-8.54,8.15-20.09,13.16-32.82,13.16Z"
                style="fill: black;"></path>
        </g>
    </g>
    <circle class="cls-3" cx="-526.257" cy="-96.926" r="48.51" style="fill: rgb(89, 139, 255);"></circle>
    <circle class="cls-3" cx="-526.257" cy="127.204" r="48.51" style="fill: rgb(89, 139, 255);"></circle>
</svg>