<svg viewBox="33.83 90.688 787.14 236" width="787.14" height="236"
    xmlns="http://www.w3.org/2000/svg">
    <defs></defs>
    <rect class="cls-1" x="337.61" y="184.078" width="13.15" height="85.86"
        style="fill: white;" transform="matrix(1, 0, 0, 1, 0, -5.684341886080802e-14)"></rect>
    <rect class="cls-1" x="302.49" y="147.708" width="107.19" height="13.15"
        style="fill: white;" transform="matrix(1, 0, 0, 1, 0, -5.684341886080802e-14)"></rect>
    <rect class="cls-1" x="361.37" y="184.078" width="13.15" height="85.86"
        style="fill: white;" transform="matrix(1, 0, 0, 1, 0, -5.684341886080802e-14)"></rect>
    <polygon class="cls-1"
        points="737.81 270.028 751.07 270.028 751.07 218.318 737.81 203.568 737.81 270.028"
        style="fill: white;" transform="matrix(1, 0, 0, 1, 0, -5.684341886080802e-14)"></polygon>
    <polygon class="cls-1"
        points="807.67 147.708 807.67 243.578 713.82 139.268 713.82 270.028 727.05 270.028 727.05 174.128 820.97 278.468 820.97 147.708 807.67 147.708"
        style="fill: white;" transform="matrix(1, 0, 0, 1, 0, -5.684341886080802e-14)"></polygon>
    <path class="cls-1"
        d="M 627.9 147.688 C 580.819 147.688 551.393 198.655 574.934 239.428 C 598.474 280.201 657.326 280.201 680.866 239.428 C 686.234 230.131 689.06 219.584 689.06 208.848 C 689.032 175.082 661.666 147.716 627.9 147.688 Z M 627.9 256.828 C 590.949 256.828 567.855 216.828 586.331 184.828 C 604.806 152.828 650.994 152.828 669.469 184.828 C 673.682 192.125 675.9 200.402 675.9 208.828 C 675.878 235.322 654.394 256.788 627.9 256.788 L 627.9 256.828 Z"
        style="fill: white;" transform="matrix(1, 0, 0, 1, 0, -5.684341886080802e-14)"></path>
    <path class="cls-1"
        d="M 627.9 200.008 C 621.126 200 616.883 207.329 620.264 213.199 C 623.644 219.07 632.112 219.079 635.506 213.217 C 636.281 211.877 636.69 210.356 636.69 208.808 C 636.69 203.952 632.756 200.014 627.9 200.008 Z"
        style="fill: white;" transform="matrix(1, 0, 0, 1, 0, -5.684341886080802e-14)"></path>
    <path class="cls-1"
        d="M 543.72 185.228 C 543.77 164.604 527.114 147.832 506.49 147.738 L 436.49 147.738 L 436.49 270.058 L 449.6 270.058 L 449.6 161.058 L 506.49 161.058 C 525.153 161.48 536.36 181.947 526.663 197.898 C 522.416 204.886 514.933 209.262 506.76 209.538 L 460.35 209.538 L 460.35 270.138 L 473.4 270.138 L 473.4 222.688 L 504 222.688 L 529 269.988 L 544.2 269.988 L 518.1 220.818 C 533.344 215.617 543.625 201.335 543.72 185.228 Z"
        style="fill: white;" transform="matrix(1, 0, 0, 1, 0, -5.684341886080802e-14)"></path>
    <path class="cls-2"
        d="M 212.07 123.478 L 33.83 90.688 L 127.63 326.688 L 258.3 167.458 L 212.07 123.478 Z M 209.22 137.928 L 236.5 163.848 L 161.92 177.348 L 209.22 137.928 Z M 145.72 174.688 L 67.12 109.498 L 195.57 133.138 L 145.72 174.688 Z M 140.09 186.238 L 127.3 292.148 L 58.2 118.238 L 140.09 186.238 Z M 151.94 191.838 L 234.52 176.838 L 139.83 292.238 L 151.94 191.838 Z"
        style="fill: rgb(234, 29, 45);" transform="matrix(1, 0, 0, 1, 0, -5.684341886080802e-14)"></path>
</svg>