<svg viewBox="-237.1966 404.1232 795.49 123.12" width="795.49" height="123.12"
    xmlns="http://www.w3.org/2000/svg">
    <defs></defs>
    <g transform="matrix(1, 0, 0, 1, -299.8566634037593, 341.4432423925883)">
        <path class="cls-1"
            d="m62.68,70.34h22.97l19.04,62.56c2.12,7.1,4.68,17.23,4.68,17.23h.3s2.57-10.28,4.68-17.23l18.89-62.56h22.21l-36.42,108.04h-19.95l-36.42-108.04Z"
            style="fill: rgb(248, 246, 215);"></path>
        <path class="cls-1" d="m160.89,70.34h21.91v108.04h-21.91v-108.04Z"
            style="fill: rgb(248, 246, 215);"></path>
        <path class="cls-1"
            d="m191.56,124.74c0-32.03,19.95-56.51,51.83-56.51,26.59,0,42.31,15.87,44.57,36.42h-21.76c-1.96-10.88-10.12-17.98-22.82-17.98-19.95,0-29.46,16.62-29.46,38.08s11.48,37.93,29.62,37.93c12.84,0,21.91-7.71,23.27-19.04h21.46c-.6,9.52-4.68,18.74-11.94,25.54-7.4,6.95-17.83,11.48-32.79,11.48-30.37,0-51.98-23.42-51.98-55.91Z"
            style="fill: rgb(248, 246, 215);"></path>
        <path class="cls-1" d="m289.17,70.34h86.88v18.43h-32.49v89.6h-21.91v-89.6h-32.49v-18.43Z"
            style="fill: rgb(248, 246, 215);"></path>
        <path class="cls-1" d="m383.91,70.34h21.91v108.04h-21.91v-108.04Z"
            style="fill: rgb(248, 246, 215);"></path>
        <path class="cls-1"
            d="m414.58,124.59c0-32.34,20.25-56.36,52.13-56.36s51.98,24.03,51.98,56.36-20.1,56.21-51.98,56.21-52.13-23.87-52.13-56.21Zm81.75,0c0-21.61-9.67-38.38-29.46-38.38s-29.92,16.77-29.92,38.38,10.12,38.23,29.92,38.23,29.46-16.77,29.46-38.23Z"
            style="fill: rgb(248, 246, 215);"></path>
        <path class="cls-1"
            d="m527.3,70.34h22.21l35.96,60.29c3.48,5.89,7.56,15.11,7.56,15.11h.3s-.6-11.18-.6-18.74v-56.66h21.61v108.04h-21.15l-36.87-59.68c-3.47-5.74-7.71-14.96-7.71-14.96h-.3s.6,11.33.6,18.89v55.76h-21.61v-108.04Z"
            style="fill: rgb(248, 246, 215);"></path>
    </g>
    <g transform="matrix(1, 0, 0, 1, -299.8566634037593, 341.4432423925883)">
        <path class="cls-1"
            d="m858.15,62.68v53.27c-19.48,5.02-39.91,7.68-60.95,7.68s-41.47-2.67-60.95-7.68v-53.27c19.48,5.01,39.91,7.68,60.95,7.68s41.47-2.66,60.95-7.68Z"
            style="fill: rgb(248, 246, 215);"></path>
        <path class="cls-1"
            d="m736.25,185.8v-53.27c19.48-5.02,39.91-7.68,60.95-7.68s41.47,2.67,60.95,7.68v53.27c-19.48-5.01-39.91-7.68-60.95-7.68s-41.47,2.66-60.95,7.68Z"
            style="fill: rgb(248, 246, 215);"></path>
    </g>
</svg>