<svg width="344" height="344" viewBox="0 0 344 344" fill="none" xmlns="http://www.w3.org/2000/svg">
<rect width="344" height="344" rx="40" fill="#F4F4F5"/>
<path fill-rule="evenodd" clip-rule="evenodd" d="M157.729 137.217C152.754 133.739 146.805 132 139.882 132C132.959 132 127.01 133.739 122.035 137.217C117.059 140.623 113.31 145.333 110.786 151.348C108.262 157.362 107 164.246 107 172C107 179.754 108.262 186.638 110.786 192.652C113.31 198.667 117.059 203.413 122.035 206.891C127.01 210.297 132.959 212 139.882 212C146.805 212 152.754 210.297 157.729 206.891C162.705 203.413 166.454 198.667 168.978 192.652C171.502 186.638 172.764 179.754 172.764 172C172.764 164.246 171.502 157.362 168.978 151.348C166.454 145.333 162.705 140.623 157.729 137.217ZM149.252 150.613C146.834 148.059 143.711 146.783 139.882 146.783C134.762 146.783 130.868 149.065 128.2 153.63C125.604 158.196 124.306 164.319 124.306 172C124.306 176.822 124.818 181.03 125.841 184.624L149.252 150.613ZM130.443 193.378C132.902 195.938 136.049 197.217 139.882 197.217C145.002 197.217 148.86 194.935 151.456 190.37C154.124 185.804 155.458 179.681 155.458 172C155.458 167.163 154.929 162.944 153.871 159.343L130.443 193.378Z" fill="#26272B"/>
<path d="M193.302 180.261L172.967 210.261H192.436L201.955 193.304C202.676 192.145 203.108 190.623 203.253 188.739C203.325 188.014 203.469 187.471 203.685 187.109C203.902 186.674 204.334 186.457 204.983 186.457C205.993 186.457 206.57 187.109 206.714 188.413V188.739C206.858 190.623 207.291 192.145 208.012 193.304L217.53 210.261H237L216.665 180.261L235.269 152.87H215.8L208.012 167.109C207.147 168.63 206.714 170.152 206.714 171.674C206.714 172.326 206.57 172.87 206.281 173.304C206.065 173.739 205.632 173.957 204.983 173.957C204.334 173.957 203.866 173.739 203.577 173.304C203.361 172.87 203.253 172.326 203.253 171.674C203.253 170.152 202.82 168.63 201.955 167.109L194.167 152.87H174.697L193.302 180.261Z" fill="#26272B"/>
</svg>
