<svg width="32" height="32" viewBox="0 0 32 32" fill="none" xmlns="http://www.w3.org/2000/svg">
<g clip-path="url(#clip0_301_2461)">
<path d="M16 31.52C24.5714 31.52 31.52 24.5714 31.52 16C31.52 7.42852 24.5714 0.47998 16 0.47998C7.42852 0.47998 0.47998 7.42852 0.47998 16C0.47998 24.5714 7.42852 31.52 16 31.52Z" fill="url(#paint0_linear_301_2461)"/>
<path d="M22.7921 22.184L17.5441 9.49596C17.2481 8.83996 16.8081 8.51996 16.2281 8.51996H15.7641C15.1841 8.51996 14.7441 8.83996 14.4481 9.49596L12.1641 15.024H10.4361C9.92012 15.028 9.50012 15.444 9.49612 15.964V15.976C9.50012 16.492 9.92012 16.912 10.4361 16.916H11.3641L9.18412 22.184C9.14412 22.3 9.12012 22.42 9.12012 22.544C9.12012 22.84 9.21212 23.072 9.37612 23.252C9.54012 23.432 9.77612 23.52 10.0721 23.52C10.2681 23.516 10.4561 23.456 10.6121 23.34C10.7801 23.224 10.8961 23.056 10.9881 22.864L13.3881 16.912H15.0521C15.5681 16.908 15.9881 16.492 15.9921 15.972V15.948C15.9881 15.432 15.5681 15.012 15.0521 15.008H14.1641L15.9961 10.444L20.9881 22.86C21.0801 23.052 21.1961 23.22 21.3641 23.336C21.5201 23.452 21.7121 23.512 21.9041 23.516C22.2001 23.516 22.4321 23.428 22.6001 23.248C22.7681 23.068 22.8561 22.836 22.8561 22.54C22.8601 22.42 22.8401 22.296 22.7921 22.184Z" fill="white"/>
</g>
<defs>
<linearGradient id="paint0_linear_301_2461" x1="27.5715" y1="6.26344" x2="4.47771" y2="25.6945" gradientUnits="userSpaceOnUse">
<stop stop-color="#B6509E"/>
<stop offset="1" stop-color="#2EBAC6"/>
</linearGradient>
<clipPath id="clip0_301_2461">
<rect width="32" height="32" fill="white"/>
</clipPath>
</defs>
</svg>
