<svg width="32" height="32" viewBox="0 0 32 32" fill="none" xmlns="http://www.w3.org/2000/svg">
<path d="M19.6055 14.6623L21.9555 10.6746L28.2899 20.5405L28.2928 22.4339L28.2722 9.405C28.2572 9.08641 28.0881 8.79499 27.8183 8.6231L16.414 2.06344C16.1474 1.93231 15.809 1.93388 15.5427 2.06758C15.5067 2.08569 15.473 2.10519 15.4407 2.12665L15.401 2.15166L4.33124 8.56639L4.28831 8.58608C4.23298 8.61128 4.17726 8.64377 4.12469 8.68119C3.91479 8.83162 3.77538 9.05432 3.73029 9.30379C3.72359 9.3416 3.71847 9.38019 3.71631 9.41918L3.73364 20.0364L9.63386 10.8916C10.3766 9.67909 11.9951 9.28824 13.4977 9.3097L15.261 9.35617L4.87095 26.0188L6.09569 26.7239L16.6102 9.37311L21.2577 9.35617L10.7704 27.1449L15.1407 29.6587L15.6629 29.9588C15.8838 30.0486 16.1441 30.0531 16.3668 29.9726L27.9313 23.2708L25.7203 24.552L19.6055 14.6623ZM20.502 27.5763L16.088 20.6482L18.7826 16.0757L24.5796 25.213L20.502 27.5763Z" fill="#2D374B"/>
<path d="M16.0869 20.6481L20.5011 27.576L24.5786 25.2129L18.7815 16.0756L16.0869 20.6481Z" fill="#28A0F0"/>
<path d="M28.2933 22.4338L28.2904 20.5404L21.956 10.6746L19.606 14.6623L25.721 24.5519L27.932 23.2707C28.1488 23.0946 28.2802 22.8361 28.2939 22.5573L28.2933 22.4338Z" fill="#28A0F0"/>
<path d="M1.74902 24.2193L4.87132 26.0185L15.2613 9.35588L13.4981 9.30941C11.9957 9.28814 10.3771 9.6788 9.63422 10.8913L3.73401 20.0361L1.74902 23.086V24.2193Z" fill="white"/>
<path d="M21.2572 9.35583L16.6097 9.37277L6.09521 26.7235L9.77042 28.8394L10.7697 27.1445L21.2572 9.35583Z" fill="white"/>
<path d="M30.2516 9.33193C30.2128 8.36001 29.6865 7.4704 28.8623 6.95235L17.3085 0.308032C16.4932 -0.102512 15.4746 -0.103103 14.6576 0.307835C14.5611 0.356471 3.42192 6.81688 3.42192 6.81688C3.26774 6.89072 3.11928 6.97873 2.97967 7.07876C2.24384 7.60627 1.7953 8.42578 1.74902 9.32602V23.0862L3.73401 20.0364L3.71668 9.41896C3.71904 9.38017 3.72397 9.34178 3.73066 9.30417C3.77555 9.0543 3.91516 8.8316 4.12506 8.68097C4.17763 8.64356 15.5069 2.08548 15.5429 2.06737C15.8093 1.93367 16.1476 1.93209 16.4142 2.06323L27.8185 8.62288C28.0882 8.79478 28.2574 9.08619 28.2723 9.40478V22.557C28.2585 22.8358 28.1483 23.0943 27.9315 23.2703L25.7205 24.5516L24.5796 25.2128L20.5021 27.5758L16.3669 29.9722C16.1442 30.0527 15.8837 30.0482 15.663 29.9584L10.7706 27.1444L9.77107 28.8394L14.1679 31.3708C14.3132 31.4535 14.4428 31.5267 14.5491 31.5866C14.7137 31.6789 14.826 31.7406 14.8656 31.7598C15.178 31.9117 15.6276 31.9999 16.0328 31.9999C16.4042 31.9999 16.7665 31.9317 17.1093 31.7975L29.1202 24.8418C29.8096 24.3076 30.2152 23.5021 30.2516 22.6296V9.33193Z" fill="#96BEDC"/>
</svg>
