<?xml version="1.0" encoding="utf-8"?>
<svg viewBox="0 0 500 500" width="500" height="500" xmlns="http://www.w3.org/2000/svg">
  <ellipse style="fill: rgb(244, 244, 244)" cx="250" cy="250" rx="250" ry="250"/>
  <g id="Artboard" stroke="none" stroke-width="1" fill="white" fill-rule="evenodd" transform="matrix(1.946107029914856, 0, 0, 1.8650050163269043, 51.899754343923235, 80.36522031374602)" style="">
    <g id="Group" transform="translate(36.544343, 17.000000)" fill="#000000">
      <polygon id="Path" points="78.17737 46.1957187 78.17737 29.9510703 14.7217125 0 14.7217125 16.2446483"/>
      <polygon id="Path" points="14.7217125 119.804281 14.7217125 16.2446483 0 9.39143731 0 112.95107"/>
      <polygon id="Path" points="78.17737 166 78.17737 149.755352 14.7217125 119.804281 14.7217125 136.04893"/>
      <polygon id="Path" opacity="0.122256324" points="78.17737 46.1957187 126.911315 23.351682 126.911315 7.10703364 78.17737 29.9510703"/>
      <polygon id="Path" opacity="0.122256324" points="14.7217125 119.804281 63.2018349 96.9602446 63.2018349 39.088685 14.7217125 16.2446483"/>
      <polygon id="Path" opacity="0.122256324" points="78.17737 166 126.911315 143.155963 126.911315 126.911315 78.17737 149.755352"/>
    </g>
  </g>
</svg>