<svg width="32" height="32" viewBox="0 0 32 32" fill="none" xmlns="http://www.w3.org/2000/svg">
<g clip-path="url(#clip0_301_2023)">
<path d="M16 32C24.8366 32 32 24.8366 32 16C32 7.16344 24.8366 0 16 0C7.16344 0 0 7.16344 0 16C0 24.8366 7.16344 32 16 32Z" fill="#00D395"/>
<path fill-rule="evenodd" clip-rule="evenodd" d="M8.57 21.587C8.32144 21.4401 8.11523 21.2312 7.97151 20.9807C7.82779 20.7302 7.75147 20.4468 7.75 20.158V16.905C7.75 16.518 8.072 16.205 8.466 16.207C8.592 16.207 8.716 16.24 8.826 16.302L16.329 20.583C16.768 20.833 17.039 21.293 17.039 21.79V25.16C17.0383 25.2714 17.0157 25.3816 16.9723 25.4842C16.9289 25.5868 16.8657 25.6798 16.7862 25.7579C16.7067 25.8359 16.6126 25.8975 16.5093 25.9391C16.4059 25.9806 16.2954 26.0014 16.184 26C16.0257 26.0001 15.8703 25.9576 15.734 25.877L8.57 21.587ZM19.754 15.411C20.194 15.661 20.462 16.122 20.464 16.618V23.458C20.464 23.66 20.354 23.847 20.173 23.945L18.531 24.849C18.5099 24.8608 18.4874 24.8699 18.464 24.876V21.078C18.464 20.586 18.201 20.13 17.768 19.878L11.18 16.02V11.733C11.18 11.346 11.502 11.033 11.897 11.035C12.0229 11.0352 12.1465 11.068 12.256 11.13L19.756 15.411H19.754ZM23.039 10.359C23.479 10.609 23.75 11.069 23.75 11.568V21.558C23.7487 21.6596 23.7201 21.7588 23.6671 21.8454C23.6142 21.932 23.5388 22.0027 23.449 22.05L21.892 22.873V15.917C21.892 15.426 21.628 14.971 21.199 14.718L14.463 10.765V6.70005C14.463 6.57605 14.498 6.45505 14.559 6.34805C14.6571 6.18721 14.8139 6.07086 14.9963 6.02364C15.1786 5.97642 15.3722 6.00203 15.536 6.09505L23.039 10.36V10.359Z" fill="white"/>
</g>
<defs>
<clipPath id="clip0_301_2023">
<rect width="32" height="32" fill="white"/>
</clipPath>
</defs>
</svg>
