<svg width="32" height="32" viewBox="0 0 32 32" fill="none" xmlns="http://www.w3.org/2000/svg">
<circle cx="16" cy="16" r="16" fill="white"/>
<path d="M16.167 2.66663V12.4825C16.167 12.5242 16.1254 12.5659 16.0837 12.5659C15.792 12.6933 15.542 12.8195 15.2503 12.9457C14.8753 13.1135 14.4586 13.2826 14.0836 13.4933L12.7085 14.1243L11.5835 14.6303L10.2084 15.2624C9.83342 15.4315 9.4584 15.5993 9.04171 15.8101C8.75003 15.9363 8.41669 16.1053 8.12501 16.2315C8.08334 16.2315 8.08334 16.2732 8.04167 16.2315H8C8.12501 16.0208 8.25001 15.8517 8.37502 15.6422C9.04171 14.5041 9.75008 13.3671 10.4168 12.229C11.1251 11.0087 11.8752 9.78599 12.5835 8.56451C13.2502 7.42755 13.9169 6.2906 14.5836 5.19531C15.0837 4.35123 15.5837 3.55238 16.042 2.70829C16.1254 2.70829 16.1254 2.66663 16.167 2.66663C16.167 2.66663 16.1254 2.66663 16.167 2.66663Z" fill="#8C8C8C"/>
<path d="M24.2506 16.2316C23.6256 16.653 22.9589 17.0316 22.3339 17.4102C20.2921 18.6329 18.292 19.8127 16.2502 21.0342C16.2086 21.0342 16.2086 21.0759 16.1669 21.0759C16.1252 21.0759 16.1252 21.0342 16.1252 21.0342V12.566C16.1252 12.5243 16.1669 12.5243 16.2086 12.5243C16.3753 12.6076 16.5419 12.6933 16.7503 12.7767C17.2503 13.0303 17.792 13.241 18.292 13.4934C18.7504 13.7041 19.167 13.9148 19.6254 14.0827C20.0838 14.2934 20.5004 14.5041 20.9588 14.7149C21.3338 14.8839 21.7505 15.0518 22.1255 15.2625C22.5005 15.4316 22.9172 15.5994 23.2922 15.8102C23.5839 15.9363 23.8756 16.1054 24.2089 16.2316C24.2089 16.1899 24.2089 16.2316 24.2506 16.2316Z" fill="#141414"/>
<path d="M16.1671 29.3333C16.1254 29.3333 16.1671 29.3333 16.1671 29.3333C16.1254 29.3333 16.1254 29.3333 16.0838 29.2904C15.2504 28.1118 14.4587 26.9736 13.6253 25.7938L11.1252 22.2556C10.3335 21.1186 9.50015 19.9817 8.70844 18.8007L8.08342 17.9161C8.08342 17.8744 8.04175 17.8744 8.04175 17.8328C8.08342 17.8328 8.08342 17.8744 8.12509 17.8744C9.25014 18.5483 10.4169 19.2221 11.5419 19.896C12.8336 20.6972 14.167 21.4555 15.4587 22.2556C15.6671 22.3818 15.9171 22.508 16.1254 22.6342C16.1671 22.6342 16.1671 22.677 16.1671 22.7187V29.3333Z" fill="#8C8C8C"/>
<path d="M8 15.7906C8 15.749 8 15.749 8 15.7906C8.41669 15.5799 8.83337 15.4121 9.25006 15.2013L10.8751 14.443C11.2918 14.2322 11.7085 14.0644 12.1252 13.8537C12.7085 13.5584 13.3336 13.306 13.9169 13.0108C14.3336 12.8417 14.7503 12.631 15.167 12.4631C15.4587 12.3369 15.7503 12.2107 16.042 12.0417C16.0837 12.0417 16.0837 12 16.1254 12V20.5932C16.0837 20.6361 16.0837 20.5932 16.042 20.5932C15.917 20.5099 15.792 20.467 15.7087 20.3825L8.08334 15.8335C8.04167 15.7906 8 15.7906 8 15.7906ZM24.1257 17.3502C24.1257 17.3919 24.1257 17.3919 24.0841 17.4336C21.6673 20.8885 19.2505 24.3005 16.8337 27.7555C16.5837 28.1341 16.3337 28.471 16.0837 28.8508V22.1516C16.6254 21.8147 17.1671 21.4778 17.7088 21.1837L24.0841 17.3919C24.0841 17.3502 24.1257 17.3502 24.1257 17.3502Z" fill="#3C3C3B"/>
<path d="M16.167 12.5242V2.71069L24.1674 16.1065C24.209 16.1482 24.2507 16.1899 24.2507 16.2327C24.084 16.1494 23.9173 16.0637 23.709 15.9803C23.5007 15.8958 23.2923 15.7696 23.084 15.6851C22.959 15.6434 22.834 15.5589 22.6673 15.516C22.4589 15.4327 22.2089 15.3053 22.0006 15.222C21.8756 15.1791 21.7506 15.0958 21.6256 15.0529L20.7505 14.6743C20.5839 14.5898 20.4589 14.5481 20.2922 14.4636C20.0838 14.3791 19.8755 14.2529 19.6671 14.1683C19.5421 14.1267 19.4171 14.0422 19.2921 14.0005L18.4171 13.6207C18.2504 13.5374 18.1254 13.4945 17.9587 13.41C17.7504 13.3266 17.5421 13.1993 17.3337 13.1147C17.2087 13.0314 17.042 12.9885 16.917 12.9052L16.167 12.5254V12.5242Z" fill="#343434"/>
</svg>
