<?xml version="1.0" encoding="utf-8"?>
<svg viewBox="0 0 500 500" width="500" height="500" xmlns="http://www.w3.org/2000/svg">
  <ellipse style="fill: #ffbb45;" cx="250" cy="250" rx="250" ry="250" transform="matrix(1, 0, 0, 1, 5.684341886080802e-14, 2.842170943040401e-14)"/>
  <path d="M 379.317 118.75 C 379.057 116.557 378.018 114.657 376.297 113.118 C 374.706 111.678 372.661 110.761 371.037 110.008 L 369.608 109.32 C 366.265 107.716 362.921 106.145 359.479 104.573 L 357.499 103.689 C 353.797 102.052 350.064 100.415 346.329 98.81 C 346.329 98.81 333.796 93.408 331.167 92.262 C 327.498 90.657 323.797 89.151 320.096 87.678 L 314.252 85.289 C 308.05 82.735 301.654 80.082 294.868 80.082 C 290.355 80.082 286.362 81.26 282.627 83.651 C 278.309 86.368 275.583 90.461 274.544 95.798 C 273.18 102.347 269.674 116.621 266.491 129.391 C 265.777 132.207 263.017 133.975 260.193 133.451 C 254.608 132.403 248.991 131.421 243.375 130.472 C 235.68 129.195 228.049 127.066 220.192 126.477 C 212.368 125.953 204.706 128.147 197.141 130.013 C 180.614 134.008 164.413 139.639 149.024 147.039 C 144.998 149.036 144.024 151.033 143.959 155.355 C 143.634 171.235 141.199 187.377 140.257 203.256 C 139.219 220.544 138.602 237.831 138.276 255.217 C 137.693 290.448 138.276 326.137 143.667 361.071 C 143.861 362.25 144.315 363.592 144.25 364.804 C 144.25 365.721 144.446 366.67 144.965 367.522 C 145.809 369.06 148.309 373.71 194.348 384.285 C 207.855 387.396 240.745 394.402 261.881 394.402 C 262.726 394.402 263.602 394.402 264.446 394.337 C 314.024 392.863 330.875 372.531 331.589 371.68 C 332.888 370.01 333.7 369.028 334.998 334.845 C 335.777 315.56 336.459 289.596 336.914 263.533 C 337.433 236.03 337.692 210.755 337.563 192.223 C 337.498 184.463 337.498 176.801 337.174 169.106 C 337.044 165.767 336.849 162.395 336.394 159.088 C 335.68 153.98 331.329 152.245 327.109 150.444 C 325.387 149.723 323.504 149.036 321.719 148.382 C 317.563 146.843 313.278 145.533 308.959 144.322 C 308.115 144.06 299.349 141.603 299.025 141.603 L 296.654 141.079 C 294.608 140.621 291.459 138.035 292.336 133.582 L 298.147 108.6 C 298.927 108.109 300.063 107.323 301.037 106.341 L 308.472 109.582 C 309.965 110.205 359.382 131.552 359.934 131.781 C 360.81 132.142 361.654 132.501 362.563 132.96 L 363.212 133.255 C 363.634 133.451 364.056 133.648 364.608 133.811 C 365.421 134.106 366.524 134.531 367.856 134.63 C 368.797 134.63 369.576 134.434 370.323 134.237 C 371.849 133.746 373.278 132.829 374.641 131.454 C 375.939 130.144 376.978 128.671 377.791 126.936 C 379.187 123.989 379.674 121.205 379.349 118.684 L 379.317 118.75 Z M 174.088 353.869 C 173.699 354.589 172.757 354.884 172.01 354.523 C 171.264 354.162 170.907 353.246 171.166 352.427 L 198.894 265.99 L 154.381 261.668 C 153.764 261.602 153.244 261.177 153.017 260.587 C 152.855 259.997 152.952 259.31 153.374 258.852 L 207.985 195.333 C 208.504 194.744 209.413 194.612 210.063 195.104 C 210.744 195.53 210.972 196.413 210.712 197.199 L 194.056 236.62 C 193.797 237.243 194.251 237.93 194.9 237.93 L 239.575 237.93 C 240.16 237.93 240.68 238.225 240.94 238.782 C 241.232 239.337 241.232 239.993 240.94 240.451 L 174.153 353.902 L 174.088 353.869 Z M 259.446 374.79 C 259.381 376.329 258.017 377.508 256.232 377.508 C 244.641 377.868 226.621 377.147 210.03 373.252 C 208.894 372.99 209.089 371.319 210.257 371.254 C 261.134 368.307 246.329 261.668 257.076 201.488 C 267.53 142.586 260.355 349.023 259.413 374.79 L 259.446 374.79 Z M 301.654 160.79 C 306.264 159.841 310.972 159.317 315.68 159.055 C 322.628 158.662 323.017 158.466 321.752 159.71 C 320.81 160.66 318.765 161.118 317.563 161.609 C 315.713 162.329 313.797 163.017 311.913 163.672 C 303.473 166.618 294.933 169.271 286.362 171.858 C 280.063 173.756 273.796 175.72 267.433 177.259 C 266.491 177.488 265.517 177.686 264.543 177.816 C 259.933 178.439 255.387 177.783 250.875 176.9 C 244.511 175.656 238.212 174.28 231.914 172.741 C 214.543 168.485 197.271 163.835 180.03 159.022 C 162.562 153.98 159.64 150.968 181.362 154.111 C 182.14 154.21 182.79 154.275 183.504 154.34 C 195.193 156.141 206.978 157.713 218.602 159.546 C 235.907 162.296 253.667 166.062 271.231 165.112 C 281.459 164.556 291.621 162.82 301.654 160.79 Z" style="" transform="matrix(1, 0, 0, 1, 5.684341886080802e-14, 2.842170943040401e-14)"/>
</svg>