<?xml version="1.0" encoding="utf-8"?>
<!-- Generator: Adobe Illustrator 27.9.1, SVG Export Plug-In . SVG Version: 6.00 Build 0)  -->
<svg version="1.1" id="Layer_1" xmlns="http://www.w3.org/2000/svg" xmlns:xlink="http://www.w3.org/1999/xlink" x="0px" y="0px"
	 viewBox="0 0 280 280" style="enable-background:new 0 0 280 280;" xml:space="preserve">
<style type="text/css">
	.st0{fill:url(#SVGID_1_);}
	.st1{fill:url(#SVGID_00000091007630499997253570000004727935423234049439_);}
	.st2{fill:url(#SVGID_00000165933642802322150370000012477065528076208031_);}
	.st3{fill:url(#SVGID_00000005241932558764749290000008356530083517361035_);}
	.st4{fill:url(#SVGID_00000177447946578094733100000008793646463887431088_);}
	.st5{fill:url(#SVGID_00000109733579834098710750000010357022050977561228_);}
</style>
<linearGradient id="SVGID_1_" gradientUnits="userSpaceOnUse" x1="179.736" y1="1157.3073" x2="131.3455" y2="1239.5652" gradientTransform="matrix(1 0 0 1 0 -976.51)">
	<stop  offset="0" style="stop-color:#FF94A6"/>
	<stop  offset="0.1723" style="stop-color:#EB6BC0"/>
	<stop  offset="0.3335" style="stop-color:#DB4AD5"/>
	<stop  offset="0.4221" style="stop-color:#D53EDD"/>
	<stop  offset="0.5343" style="stop-color:#CC3FDE"/>
	<stop  offset="0.7177" style="stop-color:#B442E0"/>
	<stop  offset="0.9483" style="stop-color:#8C46E4"/>
	<stop  offset="1" style="stop-color:#8247E5"/>
</linearGradient>
<path class="st0" d="M140,272.2c15.2,0,28.2-9.1,34-22.1c1.4-3.2-0.9-6.7-4.4-6.7h-59.1c-3.5,0-5.8,3.6-4.4,6.7
	C111.8,263.1,124.8,272.2,140,272.2"/>
<linearGradient id="SVGID_00000098180993409323838800000009711896939930795683_" gradientUnits="userSpaceOnUse" x1="232.0601" y1="60.5608" x2="86.8025" y2="242.5925">
	<stop  offset="0" style="stop-color:#FF94A6"/>
	<stop  offset="0.1723" style="stop-color:#EB6BC0"/>
	<stop  offset="0.3335" style="stop-color:#DB4AD5"/>
	<stop  offset="0.4221" style="stop-color:#D53EDD"/>
	<stop  offset="0.5343" style="stop-color:#CC3FDE"/>
	<stop  offset="0.7177" style="stop-color:#B442E0"/>
	<stop  offset="0.9483" style="stop-color:#8C46E4"/>
	<stop  offset="1" style="stop-color:#8247E5"/>
</linearGradient>
<path style="fill:url(#SVGID_00000098180993409323838800000009711896939930795683_);" d="M230.7,207.6c-9.6,0-17.4-7.8-17.4-17.4
	v-63.2c0-34.3-23.5-63-55.3-71.1c-1.2-9-8.9-16-18.2-16s-17.1,7.1-18.2,16.1C93,63.3,71.2,87.5,67.3,117.2c-0.1,0.4-0.1,0.9-0.2,1.3
	c-0.1,0.6-0.1,1.2-0.2,1.8s-0.1,1.2-0.1,1.8c0,0.5-0.1,1-0.1,1.5c0,1-0.1,2-0.1,3c0,0.1,0,0.2,0,0.3v63.2c0,9.6-7.7,17.3-17.3,17.4
	c-4.6,0-8.3,3.6-8.3,8.1v0.1c0,4.5,3.7,8.2,8.2,8.2h181.4c4.5,0,8.2-3.7,8.2-8.2C238.9,211.2,235.2,207.6,230.7,207.6L230.7,207.6z"
	/>
<g>
	
		<linearGradient id="SVGID_00000103224144767446059060000003310663588091473558_" gradientUnits="userSpaceOnUse" x1="285.1253" y1="991.7592" x2="37.2711" y2="1156.2749" gradientTransform="matrix(1 0 0 1 0 -976.51)">
		<stop  offset="0" style="stop-color:#FF94A6"/>
		<stop  offset="0.1723" style="stop-color:#EB6BC0"/>
		<stop  offset="0.3335" style="stop-color:#DB4AD5"/>
		<stop  offset="0.4221" style="stop-color:#D53EDD"/>
		<stop  offset="0.5343" style="stop-color:#CC3FDE"/>
		<stop  offset="0.7177" style="stop-color:#B442E0"/>
		<stop  offset="0.9483" style="stop-color:#8C46E4"/>
		<stop  offset="1" style="stop-color:#8247E5"/>
	</linearGradient>
	<path style="fill:url(#SVGID_00000103224144767446059060000003310663588091473558_);" d="M192.5,43.3c20.4,4.4,36,21.9,37.9,42.7
		c0.2,2.3,2.2,4,4.6,3.8c1.1-0.1,2.1-0.6,2.8-1.5c0.7-0.9,1.1-2,0.9-3.1c-1.1-12.1-6-23.4-14.2-32.5c-8.1-9-18.6-15.2-30.4-17.7
		c-0.3-0.1-0.6-0.1-0.9-0.1c-1.9,0-3.7,1.4-4.1,3.3C188.8,40.6,190.3,42.9,192.5,43.3z"/>
	
		<linearGradient id="SVGID_00000021091008288451126540000006888779595511964808_" gradientUnits="userSpaceOnUse" x1="282.7997" y1="988.259" x2="34.9456" y2="1152.7748" gradientTransform="matrix(1 0 0 1 0 -976.51)">
		<stop  offset="0" style="stop-color:#FF94A6"/>
		<stop  offset="0.1723" style="stop-color:#EB6BC0"/>
		<stop  offset="0.3335" style="stop-color:#DB4AD5"/>
		<stop  offset="0.4221" style="stop-color:#D53EDD"/>
		<stop  offset="0.5343" style="stop-color:#CC3FDE"/>
		<stop  offset="0.7177" style="stop-color:#B442E0"/>
		<stop  offset="0.9483" style="stop-color:#8C46E4"/>
		<stop  offset="1" style="stop-color:#8247E5"/>
	</linearGradient>
	<path style="fill:url(#SVGID_00000021091008288451126540000006888779595511964808_);" d="M197.2,16.3c31.7,6.8,56,34.1,59,66.5
		c0.2,2.3,2.2,4,4.6,3.8c1.1-0.1,2.1-0.6,2.9-1.5c0.7-0.9,1.1-2,0.9-3.1c-1.7-17.9-8.9-34.4-20.9-47.8
		C231.8,20.8,216.4,11.8,199,8.1C198.7,8,198.4,8,198.1,8c-1.9,0-3.7,1.4-4.1,3.3C193.5,13.6,195,15.8,197.2,16.3z"/>
	
		<linearGradient id="SVGID_00000169541553013678628830000005405332770336432565_" gradientUnits="userSpaceOnUse" x1="238.8376" y1="922.0308" x2="-9.0166" y2="1086.5583" gradientTransform="matrix(1 0 0 1 0 -976.51)">
		<stop  offset="0" style="stop-color:#FF94A6"/>
		<stop  offset="0.1723" style="stop-color:#EB6BC0"/>
		<stop  offset="0.3335" style="stop-color:#DB4AD5"/>
		<stop  offset="0.4221" style="stop-color:#D53EDD"/>
		<stop  offset="0.5343" style="stop-color:#CC3FDE"/>
		<stop  offset="0.7177" style="stop-color:#B442E0"/>
		<stop  offset="0.9483" style="stop-color:#8C46E4"/>
		<stop  offset="1" style="stop-color:#8247E5"/>
	</linearGradient>
	<path style="fill:url(#SVGID_00000169541553013678628830000005405332770336432565_);" d="M87.5,43.3c2.3-0.5,3.7-2.7,3.2-5
		c-0.4-2-2.2-3.3-4.1-3.3c-0.3,0-0.6,0-0.9,0.1c-11.8,2.5-22.3,8.6-30.4,17.7c-8.1,9.1-13,20.3-14.2,32.5c-0.1,1.1,0.2,2.2,0.9,3.1
		c0.7,0.9,1.7,1.4,2.8,1.5c2.4,0.2,4.4-1.5,4.6-3.8C51.5,65.3,67.1,47.7,87.5,43.3z"/>
	
		<linearGradient id="SVGID_00000167372391527000970130000010724481408050522524_" gradientUnits="userSpaceOnUse" x1="226.6653" y1="903.6952" x2="-21.0783" y2="1068.149" gradientTransform="matrix(1 0 0 1 0 -976.51)">
		<stop  offset="0" style="stop-color:#FF94A6"/>
		<stop  offset="0.1723" style="stop-color:#EB6BC0"/>
		<stop  offset="0.3335" style="stop-color:#DB4AD5"/>
		<stop  offset="0.4221" style="stop-color:#D53EDD"/>
		<stop  offset="0.5343" style="stop-color:#CC3FDE"/>
		<stop  offset="0.7177" style="stop-color:#B442E0"/>
		<stop  offset="0.9483" style="stop-color:#8C46E4"/>
		<stop  offset="1" style="stop-color:#8247E5"/>
	</linearGradient>
	<path style="fill:url(#SVGID_00000167372391527000970130000010724481408050522524_);" d="M82.8,16.3c2.3-0.5,3.7-2.7,3.2-5
		c-0.4-2-2.2-3.3-4.1-3.3c-0.3,0-0.6,0-0.9,0.1c-17.4,3.7-32.8,12.7-44.7,26.1c-12,13.4-19.2,30-20.9,47.8c-0.1,1.1,0.2,2.2,0.9,3.1
		s1.7,1.4,2.8,1.5c2.4,0.2,4.4-1.5,4.6-3.8C26.8,50.4,51,23.1,82.8,16.3z"/>
</g>
</svg>
