<svg width="32" height="32" viewBox="0 0 32 32" fill="none" xmlns="http://www.w3.org/2000/svg">
<path d="M15.9998 29.3334C23.3636 29.3334 29.3332 23.3639 29.3332 16.0001C29.3332 8.63628 23.3636 2.66675 15.9998 2.66675C8.63604 2.66675 2.6665 8.63628 2.6665 16.0001C2.6665 23.3639 8.63604 29.3334 15.9998 29.3334Z" fill="#FF007A"/>
<path d="M12.8712 6.90271C12.6337 6.86604 12.6237 6.86104 12.7354 6.84438C12.9495 6.81104 13.4562 6.85688 13.8054 6.93938C14.6195 7.13354 15.3604 7.62938 16.152 8.51021L16.362 8.74354L16.662 8.69604C17.9287 8.49188 19.2179 8.65438 20.2954 9.15188C20.592 9.28854 21.0595 9.56104 21.1179 9.63188C21.137 9.65354 21.1712 9.79771 21.1937 9.95104C21.2737 10.4819 21.2337 10.8885 21.072 11.1927C20.9837 11.3577 20.9787 11.4094 21.0379 11.551C21.0659 11.6096 21.1099 11.659 21.1647 11.6938C21.2195 11.7285 21.283 11.7472 21.3479 11.7477C21.6162 11.7477 21.9045 11.3144 22.0379 10.7119L22.0912 10.4727L22.1962 10.5919C22.7729 11.2452 23.2254 12.136 23.3029 12.7694L23.3237 12.9352L23.2262 12.7852C23.0595 12.5269 22.8929 12.3502 22.6779 12.2077C22.2912 11.9519 21.882 11.8652 20.7987 11.8077C19.8204 11.756 19.2662 11.6727 18.7179 11.4935C17.7837 11.1894 17.3129 10.7835 16.2029 9.32771C15.7104 8.68104 15.4054 8.32354 15.1029 8.03604C14.4137 7.38104 13.737 7.03771 12.8712 6.90271Z" fill="white"/>
<path d="M21.3976 8.83508C21.4227 8.40175 21.481 8.11591 21.5993 7.85508C21.646 7.75175 21.6902 7.66675 21.6968 7.66675C21.6894 7.72525 21.674 7.78245 21.651 7.83675C21.5651 8.09008 21.551 8.43675 21.6101 8.83925C21.6852 9.35091 21.7285 9.42425 22.2685 9.97675C22.5226 10.2359 22.8176 10.5626 22.9243 10.7034L23.1185 10.9584L22.9243 10.7759C22.6868 10.5534 22.1402 10.1176 22.0193 10.0559C21.9385 10.0142 21.926 10.0151 21.876 10.0642C21.8301 10.1109 21.8202 10.1792 21.8143 10.5051C21.8043 11.0117 21.7352 11.3384 21.5676 11.6634C21.4776 11.8384 21.4635 11.8017 21.5452 11.6026C21.606 11.4542 21.6118 11.3892 21.6118 10.8984C21.6118 9.91175 21.4943 9.67508 20.8068 9.26841C20.5999 9.14838 20.3875 9.03825 20.1701 8.93841C20.0628 8.89534 19.9586 8.84466 19.8585 8.78675C19.8777 8.76758 20.5477 8.96258 20.8168 9.06675C21.2185 9.22091 21.2843 9.24091 21.3335 9.22175C21.366 9.20925 21.3818 9.11425 21.3976 8.83508ZM13.3918 10.5226C12.9093 9.85841 12.611 8.83925 12.6752 8.07758L12.6952 7.84175L12.8052 7.86175C13.0118 7.89925 13.3677 8.03175 13.5343 8.13341C13.991 8.41091 14.1893 8.77675 14.3901 9.71508C14.4493 9.99008 14.5268 10.3009 14.5627 10.4067C14.6193 10.5759 14.836 10.9717 15.0127 11.2292C15.1393 11.4142 15.0543 11.5017 14.7743 11.4767C14.346 11.4376 13.766 11.0376 13.3918 10.5226ZM20.8126 15.4684C18.5568 14.5601 17.7626 13.7717 17.7626 12.4417C17.7626 12.2459 17.7693 12.0859 17.7768 12.0859C17.7851 12.0859 17.8726 12.1501 17.971 12.2292C18.4285 12.5959 18.941 12.7526 20.3585 12.9592C21.1926 13.0817 21.6627 13.1801 22.096 13.3234C23.4726 13.7801 24.3243 14.7067 24.5276 15.9684C24.586 16.3351 24.5518 17.0226 24.456 17.3851C24.381 17.6717 24.1502 18.1876 24.0893 18.2076C24.0727 18.2126 24.056 18.1484 24.051 18.0592C24.0277 17.5859 23.7885 17.1242 23.386 16.7784C22.9285 16.3859 22.3151 16.0726 20.8126 15.4684ZM19.2293 15.8451C19.2027 15.6841 19.1662 15.5249 19.1201 15.3684L19.0618 15.1967L19.1693 15.3167C19.3168 15.4834 19.4343 15.6951 19.5326 15.9784C19.6085 16.1942 19.6168 16.2584 19.616 16.6092C19.616 16.9542 19.6068 17.0259 19.5368 17.2209C19.4395 17.5068 19.2765 17.766 19.061 17.9776C18.6485 18.3976 18.1193 18.6292 17.3543 18.7259C17.221 18.7426 16.8343 18.7709 16.4935 18.7884C15.6352 18.8334 15.071 18.9251 14.5635 19.1034C14.5177 19.1239 14.4686 19.1358 14.4185 19.1384C14.3985 19.1176 14.7435 18.9117 15.0293 18.7742C15.4318 18.5801 15.8318 18.4742 16.7293 18.3251C17.1727 18.2509 17.631 18.1617 17.7468 18.1259C18.8452 17.7892 19.4102 16.9209 19.2293 15.8451Z" fill="white"/>
<path d="M19.7215 17.9592C19.4215 17.3151 19.3532 16.6926 19.5173 16.1126C19.5348 16.0509 19.5632 16.0001 19.5798 16.0001C19.6362 16.0205 19.6893 16.0491 19.7373 16.0851C19.8757 16.1784 20.1523 16.3351 20.8898 16.7367C21.8107 17.2392 22.3357 17.6284 22.6932 18.0717C23.0057 18.4609 23.199 18.9042 23.2923 19.4442C23.3448 19.7501 23.314 20.4859 23.2357 20.7942C22.9882 21.7659 22.4123 22.5292 21.5923 22.9742C21.5149 23.019 21.4348 23.0588 21.3523 23.0934C21.3407 23.0934 21.384 22.9826 21.4498 22.8459C21.7248 22.2692 21.7573 21.7076 21.5482 21.0826C21.4207 20.7001 21.1598 20.2326 20.634 19.4442C20.0223 18.5276 19.8723 18.2826 19.7215 17.9592ZM11.249 21.4351C12.0865 20.7284 13.1273 20.2267 14.0765 20.0726C14.4848 20.0059 15.1665 20.0326 15.5448 20.1292C16.1515 20.2842 16.6948 20.6326 16.9773 21.0467C17.2523 21.4517 17.3715 21.8051 17.494 22.5901C17.544 22.9001 17.5965 23.2109 17.6123 23.2817C17.704 23.6884 17.8848 24.0142 18.1082 24.1776C18.4623 24.4367 19.0732 24.4526 19.6732 24.2192C19.7359 24.1905 19.8019 24.1698 19.8698 24.1576C19.8915 24.1792 19.5898 24.3817 19.3765 24.4884C19.1248 24.6231 18.8428 24.6914 18.5573 24.6867C18.0073 24.6867 17.5507 24.4076 17.1698 23.8367C17.0948 23.7242 16.9265 23.3884 16.7948 23.0892C16.3932 22.1726 16.1948 21.8926 15.7282 21.5867C15.3207 21.3201 14.7965 21.2726 14.4023 21.4659C13.884 21.7201 13.7398 22.3826 14.1107 22.8017C14.2582 22.9684 14.5332 23.1126 14.7582 23.1401C14.8563 23.1531 14.9561 23.1449 15.0508 23.116C15.1455 23.0871 15.2329 23.0382 15.3071 22.9726C15.3813 22.9071 15.4405 22.8263 15.4808 22.7359C15.5211 22.6455 15.5415 22.5474 15.5407 22.4484C15.5407 22.1717 15.434 22.0151 15.1673 21.8942C14.8032 21.7301 14.4115 21.9217 14.4132 22.2642C14.414 22.4101 14.4773 22.5017 14.624 22.5684C14.7182 22.6101 14.7198 22.6142 14.6432 22.5984C14.309 22.5284 14.2307 22.1259 14.4998 21.8584C14.8223 21.5367 15.4898 21.6784 15.719 22.1167C15.8157 22.3009 15.8265 22.6684 15.7423 22.8901C15.5548 23.3859 15.0065 23.6459 14.4507 23.5042C14.0723 23.4076 13.9182 23.3034 13.4623 22.8334C12.6698 22.0167 12.3623 21.8584 11.219 21.6801L10.9998 21.6459L11.249 21.4351Z" fill="white"/>
<path fill-rule="evenodd" clip-rule="evenodd" d="M7.6665 5.30341L7.7465 5.40091C10.8365 9.18425 12.4332 11.1476 12.5348 11.2876C12.7015 11.5192 12.639 11.7267 12.3523 11.8901C12.1932 11.9809 11.8648 12.0726 11.7015 12.0726C11.5157 12.0726 11.3065 11.9834 11.154 11.8392C11.0465 11.7367 10.6123 11.0884 9.60984 9.53258C9.14038 8.79724 8.66481 8.06583 8.18317 7.33841C8.14234 7.30008 8.14317 7.30091 9.5315 9.78508C10.4032 11.3451 10.6982 11.8959 10.6982 11.9701C10.6982 12.1201 10.6565 12.1984 10.4715 12.4051C10.1632 12.7492 10.0257 13.1359 9.92567 13.9359C9.814 14.8334 9.50067 15.4667 8.63067 16.5509C8.12234 17.1859 8.039 17.3026 7.90984 17.5584C7.74817 17.8801 7.704 18.0609 7.68567 18.4676C7.6665 18.8976 7.704 19.1759 7.83567 19.5867C7.95067 19.9467 8.07067 20.1851 8.37734 20.6601C8.64234 21.0709 8.79484 21.3759 8.79484 21.4951C8.79484 21.5901 8.81317 21.5901 9.224 21.4976C10.2065 21.2759 11.004 20.8851 11.4532 20.4067C11.7307 20.1109 11.7957 19.9476 11.7982 19.5417C11.799 19.2767 11.7898 19.2209 11.7182 19.0684C11.6015 18.8201 11.389 18.6134 10.9207 18.2934C10.3065 17.8734 10.0448 17.5351 9.97234 17.0709C9.91234 16.6901 9.9815 16.4209 10.3215 15.7092C10.6723 14.9726 10.7598 14.6592 10.819 13.9167C10.8565 13.4367 10.909 13.2476 11.0473 13.0959C11.1907 12.9376 11.3207 12.8834 11.6765 12.8351C12.2565 12.7559 12.6257 12.6059 12.929 12.3267C13.1923 12.0834 13.3023 11.8492 13.319 11.4976L13.3323 11.2309L13.1848 11.0592C12.9732 10.8126 11.2223 8.88091 7.9315 5.26258L7.84317 5.16675L7.6665 5.30341ZM9.09484 18.9551C9.15298 18.8521 9.17034 18.7311 9.14348 18.616C9.11663 18.5009 9.04752 18.4 8.94984 18.3334C8.75984 18.2067 8.464 18.2667 8.464 18.4317C8.464 18.4817 8.4915 18.5184 8.554 18.5509C8.65984 18.6051 8.66734 18.6667 8.58484 18.7909C8.50067 18.9176 8.50734 19.0292 8.604 19.1051C8.759 19.2267 8.97817 19.1592 9.09484 18.9551ZM13.6982 12.9751C13.4257 13.0584 13.1615 13.3476 13.079 13.6501C13.029 13.8342 13.0573 14.1584 13.1323 14.2584C13.2532 14.4201 13.3707 14.4626 13.6873 14.4601C14.3073 14.4559 14.8457 14.1901 14.909 13.8576C14.9607 13.5851 14.7232 13.2076 14.3973 13.0409C14.229 12.9559 13.8715 12.9217 13.6982 12.9751ZM14.4232 13.5417C14.519 13.4059 14.4765 13.2584 14.3148 13.1601C14.0048 12.9709 13.5365 13.1267 13.5365 13.4201C13.5365 13.5651 13.7807 13.7242 14.004 13.7242C14.154 13.7242 14.3573 13.6351 14.4232 13.5417Z" fill="white"/>
</svg>
