<svg xmlns="http://www.w3.org/2000/svg" id="CryptoBig_8" viewBox="171.81214904785156 83.18783569335938 151.7942352294922 341.05218505859375"><polygon xmlns="http://www.w3.org/2000/svg" points="172.32 254.66 240.14 423.73 266.24 295.95 172.32 254.66" fill="#00ffa3"/><path xmlns="http://www.w3.org/2000/svg" d="m240.14,424.23c-.2,0-.39-.12-.46-.31l-67.83-169.07c-.08-.19-.03-.4.12-.55.15-.14.36-.18.55-.1l93.92,41.29c.22.09.34.33.29.56l-26.1,127.78c-.04.22-.23.38-.45.4-.01,0-.03,0-.04,0Zm-66.91-168.62l66.75,166.38,25.68-125.75-92.43-40.64Z" fill="#19116e"/><polygon xmlns="http://www.w3.org/2000/svg" points="323.1 238.64 266.24 295.95 240.14 423.73 323.1 238.64" fill="#00ffa3"/><path xmlns="http://www.w3.org/2000/svg" d="m240.14,424.23c-.05,0-.1,0-.15-.02-.24-.08-.39-.33-.34-.58l26.1-127.78c.02-.1.07-.18.14-.25l56.86-57.31c.17-.17.44-.2.64-.06.2.14.27.4.17.62l-82.96,185.09c-.08.18-.26.3-.46.3Zm26.56-128.03l-25.16,123.19,79.98-178.45-54.82,55.26Z" fill="#19116e"/><polygon xmlns="http://www.w3.org/2000/svg" points="323.1 238.64 250.71 264.05 266.24 295.95 323.1 238.64" fill="#19116e"/><path xmlns="http://www.w3.org/2000/svg" d="m266.24,296.45s-.05,0-.08,0c-.16-.03-.3-.13-.37-.27l-15.53-31.9c-.06-.13-.07-.28-.01-.41.05-.13.16-.23.3-.28l72.39-25.41c.22-.08.46,0,.59.2.12.2.1.45-.07.62l-56.86,57.31c-.09.1-.22.15-.35.15Zm-14.84-32.12l14.98,30.76,54.83-55.27-69.81,24.5Z" fill="#19116e"/><polygon xmlns="http://www.w3.org/2000/svg" points="172.32 254.66 250.71 264.05 266.24 295.95 172.32 254.66" fill="#19116e"/><path xmlns="http://www.w3.org/2000/svg" d="m266.24,296.45c-.07,0-.14-.01-.2-.04l-93.92-41.29c-.23-.1-.35-.35-.28-.59.07-.24.29-.39.54-.36l78.39,9.39c.17.02.32.12.39.28l15.53,31.9c.09.19.06.41-.09.57-.1.1-.23.15-.36.15Zm-90.64-40.9l89.6,39.39-14.82-30.43-74.78-8.96Z" fill="#19116e"/><polygon xmlns="http://www.w3.org/2000/svg" points="266.23 278.14 246.8 83.68 172.32 236.4 266.23 278.14" fill="#00ffa3"/><path xmlns="http://www.w3.org/2000/svg" d="m266.23,278.64c-.07,0-.14-.01-.2-.04l-93.91-41.74c-.12-.06-.22-.16-.27-.29-.05-.13-.04-.27.02-.39l74.48-152.71c.1-.2.32-.31.54-.27.22.04.39.22.41.44l19.43,194.45c.02.18-.06.35-.2.45-.09.06-.19.09-.29.09Zm-93.23-42.48l92.65,41.18-19.17-191.84-73.48,150.67Z" fill="#19116e"/><polygon xmlns="http://www.w3.org/2000/svg" points="246.8 83.68 321.71 221.93 266.23 278.14 246.8 83.68" fill="#00ffa3"/><path xmlns="http://www.w3.org/2000/svg" d="m266.23,278.64c-.06,0-.11,0-.17-.03-.18-.06-.31-.23-.33-.42l-19.43-194.45c-.02-.24.12-.46.35-.53.22-.07.47.03.59.24l74.92,138.25c.11.19.07.43-.08.59l-55.48,56.21c-.09.1-.22.15-.36.15Zm-18.69-192.53l19.08,190.92,54.47-55.18-73.55-135.74Z" fill="#19116e"/><polygon xmlns="http://www.w3.org/2000/svg" points="172.32 236.4 256.51 180.91 266.23 278.14 172.32 236.4" fill="#8d83ff"/><path xmlns="http://www.w3.org/2000/svg" d="m266.23,278.64c-.07,0-.14-.01-.2-.04l-93.91-41.74c-.17-.07-.28-.23-.29-.42-.02-.18.07-.36.22-.46l84.19-55.49c.15-.1.33-.11.49-.03.16.08.27.23.28.4l9.72,97.23c.02.18-.06.35-.2.45-.09.06-.19.09-.29.09Zm-92.87-42.32l92.29,41.02-9.55-95.55-82.74,54.53Z" fill="#19116e"/><polygon xmlns="http://www.w3.org/2000/svg" points="321.71 221.93 256.51 180.91 266.23 278.14 321.71 221.93" fill="#8d83ff"/><path xmlns="http://www.w3.org/2000/svg" d="m266.23,278.64c-.06,0-.11,0-.17-.03-.18-.06-.31-.23-.33-.42l-9.72-97.23c-.02-.19.07-.37.23-.47.17-.1.37-.1.53,0l65.2,41.02c.13.08.21.22.23.37.02.15-.04.3-.14.41l-55.48,56.21c-.1.1-.22.15-.36.15Zm-9.12-96.76l9.51,95.15,54.3-55.01-63.81-40.14Z" fill="#19116e"/></svg>