<svg xmlns:inkscape="http://www.inkscape.org/namespaces/inkscape" xmlns:sodipodi="http://sodipodi.sourceforge.net/DTD/sodipodi-0.dtd" xmlns="http://www.w3.org/2000/svg" xmlns:svg="http://www.w3.org/2000/svg" width="1332.05" height="936" viewBox="0 0 1332.0501 936" fill="none" version="1.1" id="svg117" sodipodi:docname="background-isometric-grid.svg" inkscape:version="1.2.2 (b0a8486541, 2022-12-01)">
  <defs id="defs121"/>
  <sodipodi:namedview id="namedview119" pagecolor="#ffffff" bordercolor="#000000" borderopacity="0.25" inkscape:showpageshadow="2" inkscape:pageopacity="0.0" inkscape:pagecheckerboard="0" inkscape:deskcolor="#d1d1d1" showgrid="false" showguides="true" inkscape:lockguides="false" inkscape:zoom="0.35355339" inkscape:cx="142.83557" inkscape:cy="415.77879" inkscape:window-width="2500" inkscape:window-height="1051" inkscape:window-x="60" inkscape:window-y="0" inkscape:window-maximized="1" inkscape:current-layer="g115">
    <sodipodi:guide position="133.21749,934.40322" orientation="1,0" id="guide960" inkscape:locked="false"/>
    <sodipodi:guide position="-275.81826,34.875107" orientation="0,-1" id="guide966" inkscape:locked="false"/>
    <sodipodi:guide position="32.441163,-106.26782" orientation="0,-1" id="guide968" inkscape:locked="false"/>
    <sodipodi:guide position="1273.5105,886.05612" orientation="1,0" id="guide970" inkscape:locked="false"/>
  </sodipodi:namedview>
  <g opacity="0.5" id="g115" transform="translate(-20.237232,-92.821033)">
    <mask id="mask0_170_14756" maskUnits="userSpaceOnUse" x="-84" y="-4" width="1609" height="1096">
      <rect x="-84" y="-4" width="1609" height="1096" fill="#ffffff" id="rect2"/>
    </mask>
    <g mask="url(#mask0_170_14756)" id="g113" style="display:inline" transform="translate(0.1081829,-0.01655054)">
      <line y1="-0.5" x2="2229.1499" y2="-0.5" transform="matrix(-0.879707,0.475517,0.475517,0.879707,1525,1080)" stroke="#7c3aed" id="line5" x1="0"/>
      <line y1="-0.5" x2="2229.1499" y2="-0.5" transform="matrix(-0.879707,0.475517,0.475517,0.879707,1525,1008)" stroke="#7c3aed" id="line7" x1="0"/>
      <line y1="-0.5" x2="2229.1499" y2="-0.5" transform="matrix(-0.879707,0.475517,0.475517,0.879707,1525,936)" stroke="#7c3aed" id="line9" x1="0"/>
      <line y1="-0.5" x2="2229.1499" y2="-0.5" transform="matrix(-0.879707,0.475517,0.475517,0.879707,1525,864)" stroke="#7c3aed" id="line11" x1="0"/>
      <line y1="-0.5" x2="2229.1499" y2="-0.5" transform="matrix(-0.879707,0.475517,0.475517,0.879707,1525,792)" stroke="#7c3aed" id="line13" x1="0"/>
      <line y1="-0.5" x2="2229.1499" y2="-0.5" transform="matrix(-0.879707,0.475517,0.475517,0.879707,1525,720)" stroke="#7c3aed" id="line15" x1="0"/>
      <line y1="-0.5" x2="2229.1499" y2="-0.5" transform="matrix(-0.879707,0.475517,0.475517,0.879707,1525,648)" stroke="#7c3aed" id="line17" x1="0"/>
      <line y1="-0.5" x2="2229.1499" y2="-0.5" transform="matrix(-0.879707,0.475517,0.475517,0.879707,1525,576)" stroke="#7c3aed" id="line19" x1="0"/>
      <line y1="-0.5" x2="2229.1499" y2="-0.5" transform="matrix(-0.879707,0.475517,0.475517,0.879707,1525,504)" stroke="#7c3aed" id="line21" x1="0"/>
      <line y1="-0.5" x2="2229.1499" y2="-0.5" transform="matrix(-0.879707,0.475517,0.475517,0.879707,1525,432)" stroke="#7c3aed" id="line23" x1="0"/>
      <line y1="-0.5" x2="2229.1499" y2="-0.5" transform="matrix(-0.879707,0.475517,0.475517,0.879707,1525,360)" stroke="#7c3aed" id="line25" x1="0"/>
      <line y1="-0.5" x2="2229.1499" y2="-0.5" transform="matrix(-0.879707,0.475517,0.475517,0.879707,1525,288)" stroke="#7c3aed" id="line27" x1="0"/>
      <line y1="-0.5" x2="2229.1499" y2="-0.5" transform="matrix(-0.879707,0.475517,0.475517,0.879707,1525,216)" stroke="#7c3aed" id="line29" x1="0"/>
      <line y1="-0.5" x2="2229.1499" y2="-0.5" transform="matrix(-0.879707,0.475517,0.475517,0.879707,1525,144)" stroke="#7c3aed" id="line31" x1="0"/>
      <line y1="-0.5" x2="2229.1499" y2="-0.5" transform="matrix(-0.879707,0.475517,0.475517,0.879707,1525,72)" stroke="#7c3aed" id="line33" x1="0"/>
      <line y1="-0.5" x2="2229.1499" y2="-0.5" transform="matrix(-0.879707,0.475517,0.475517,0.879707,1525,0)" stroke="#7c3aed" id="line35" x1="0"/>
      <line y1="-0.5" x2="2229.1499" y2="-0.5" transform="matrix(-0.879707,0.475517,0.475517,0.879707,1525,-72)" stroke="#7c3aed" id="line37" x1="0"/>
      <line y1="-0.5" x2="2229.1499" y2="-0.5" transform="matrix(-0.879707,0.475517,0.475517,0.879707,1525,-144)" stroke="#7c3aed" id="line39" x1="0"/>
      <line y1="-0.5" x2="2229.1499" y2="-0.5" transform="matrix(-0.879707,0.475517,0.475517,0.879707,1525,-216)" stroke="#7c3aed" id="line41" x1="0"/>
      <line y1="-0.5" x2="2229.1499" y2="-0.5" transform="matrix(-0.879707,0.475517,0.475517,0.879707,1525,-288)" stroke="#7c3aed" id="line43" x1="0"/>
      <line y1="-0.5" x2="2229.1499" y2="-0.5" transform="matrix(-0.879707,0.475517,0.475517,0.879707,1525,-360)" stroke="#7c3aed" id="line45" x1="0"/>
      <line y1="-0.5" x2="2229.1499" y2="-0.5" transform="matrix(-0.879707,0.475517,0.475517,0.879707,1525,-432)" stroke="#7c3aed" id="line47" x1="0"/>
      <line y1="-0.5" x2="2229.1499" y2="-0.5" transform="matrix(-0.879707,0.475517,0.475517,0.879707,1525,-504)" stroke="#7c3aed" id="line49" x1="0"/>
      <line y1="-0.5" x2="2229.1499" y2="-0.5" transform="matrix(-0.879707,0.475517,0.475517,0.879707,1525,-576)" stroke="#7c3aed" id="line51" x1="0"/>
      <line y1="-0.5" x2="2229.1499" y2="-0.5" transform="matrix(-0.879707,0.475517,0.475517,0.879707,1525,-648)" stroke="#7c3aed" id="line53" x1="0"/>
      <line y1="-0.5" x2="2229.1499" y2="-0.5" transform="matrix(-0.879707,0.475517,0.475517,0.879707,1525,-720)" stroke="#7c3aed" id="line55" x1="0"/>
      <line x1="-259.76199" y1="1021.56" x2="1701.24" y2="2081.5601" stroke="#7c3aed" id="line57"/>
      <line x1="-259.76199" y1="949.56" x2="1701.24" y2="2009.5601" stroke="#7c3aed" id="line59"/>
      <line x1="-259.76199" y1="877.56" x2="1701.24" y2="1937.5601" stroke="#7c3aed" id="line61"/>
      <line x1="-259.76199" y1="805.56" x2="1701.24" y2="1865.5601" stroke="#7c3aed" id="line63"/>
      <line x1="-259.76199" y1="733.56" x2="1701.24" y2="1793.5601" stroke="#7c3aed" id="line65"/>
      <line x1="-259.76199" y1="661.56" x2="1701.24" y2="1721.5601" stroke="#7c3aed" id="line67"/>
      <line x1="-259.76199" y1="589.56" x2="1701.24" y2="1649.5601" stroke="#7c3aed" id="line69"/>
      <line x1="-259.76199" y1="517.56" x2="1701.24" y2="1577.5601" stroke="#7c3aed" id="line71"/>
      <line x1="-259.76199" y1="445.56" x2="1701.24" y2="1505.5601" stroke="#7c3aed" id="line73"/>
      <line x1="-259.76199" y1="373.56" x2="1701.24" y2="1433.5601" stroke="#7c3aed" id="line75"/>
      <line x1="-259.76199" y1="301.56" x2="1701.24" y2="1361.5601" stroke="#7c3aed" id="line77"/>
      <line x1="-259.76199" y1="229.56" x2="1701.24" y2="1289.5601" stroke="#7c3aed" id="line79"/>
      <line x1="-259.76199" y1="157.56" x2="1701.24" y2="1217.5601" stroke="#7c3aed" id="line81"/>
      <line x1="-259.76199" y1="85.560097" x2="1701.24" y2="1145.5601" stroke="#7c3aed" id="line83"/>
      <line x1="-259.76199" y1="13.5601" x2="1701.24" y2="1073.5601" stroke="#7c3aed" id="line85"/>
      <line x1="-259.76199" y1="-58.439899" x2="1701.24" y2="1001.56" stroke="#7c3aed" id="line87"/>
      <line x1="-259.76199" y1="-130.44" x2="1701.24" y2="929.56" stroke="#7c3aed" id="line89"/>
      <line x1="-259.76199" y1="-202.44" x2="1701.24" y2="857.56" stroke="#7c3aed" id="line91"/>
      <line x1="-259.76199" y1="-274.44" x2="1701.24" y2="785.56" stroke="#7c3aed" id="line93"/>
      <line x1="-259.76199" y1="-346.44" x2="1701.24" y2="713.56" stroke="#7c3aed" id="line95"/>
      <line x1="-259.76199" y1="-418.44" x2="1701.24" y2="641.56" stroke="#7c3aed" id="line97"/>
      <line x1="-259.76199" y1="-490.44" x2="1701.24" y2="569.56" stroke="#7c3aed" id="line99"/>
      <line x1="-259.76199" y1="-562.44" x2="1701.24" y2="497.56" stroke="#7c3aed" id="line101"/>
      <line x1="-259.76199" y1="-634.44" x2="1701.24" y2="425.56" stroke="#7c3aed" id="line103"/>
      <line x1="-259.76199" y1="-706.44" x2="1701.24" y2="353.56" stroke="#7c3aed" id="line105"/>
      <line x1="-259.76199" y1="-778.44" x2="1701.24" y2="281.56" stroke="#7c3aed" id="line107"/>
      <line x1="-259.76199" y1="-850.44" x2="1701.24" y2="209.56" stroke="#7c3aed" id="line109"/>
      <line x1="-259.76199" y1="-922.44" x2="1701.24" y2="137.56" stroke="#7c3aed" id="line111"/>
    </g>
  </g>
</svg>